<svg width="20" height="20" viewBox="0 0 40 40" fill="none" xmlns="http://www.w3.org/2000/svg">
  <path d="M25.0199 6H31V9.89534C31 10.1883 30.8603 10.4693 30.6118 10.6764C30.3632 10.8836 30.0259 11 29.6745 11H25V6.01662L25.0199 6Z" fill="#82929E"/>
  <path d="M9 26.0196C9 27.0682 9.23679 28.1067 9.69681 29.0755C10.1568 30.0443 10.8311 30.9243 11.681 31.6656C12.5309 32.4067 13.5398 32.9944 14.6501 33.3948C15.7603 33.7955 16.9501 34.0011 18.1515 34H31V14.9123H25.2384V29.7583H19.9664C19.4412 29.7615 18.9169 29.7193 18.4011 29.6325C17.7444 29.4817 17.1317 29.211 16.6037 28.8381C16.0756 28.4652 15.6442 27.9989 15.3378 27.4699C14.9484 26.409 14.7761 25.2968 14.8289 24.1837V10H9.06723L9 26.0196Z" fill="#82929E"/>
</svg>
